<svg xmlns="http://www.w3.org/2000/svg" width="192" height="192"><path d="M151.305 7.023c5.41 4.204 7.116 9.7 8.007 16.286.436 8.28-2.372 16.182-5.093 23.91-.483 2.2-.483 2.2 2.219 4.906.845.949 1.69 1.898 2.562 2.875v2l3 1c1.387 1.848 1.387 1.848 2.688 4.063l1.324 2.222L167 66c.568-.095 1.137-.19 1.723-.29 5.407-.775 9.138-.569 14.277 1.29v2l1.875.688C187 71 187 71 188.375 73.061c1.114 5.234-.49 9.945-2.625 14.75-2.235 2.794-4.66 4.413-7.75 6.188h-2l.105 3.227c.455 19.92-4.411 36.51-16.105 52.773l-2 3h-2l-1 3h-2l-1 3h-2l-1 3c-18.763 18.39-43.81 22.893-69 23-4.58-.244-9.044-.73-13.375-2.313l-2.23-.804L62 181l-2.8-.945c-5.244-1.803-9.87-3.544-14.2-7.055v-2l-2.227-.305c-11.278-2.827-20.939-16.538-26.727-25.857-3.027-5.32-5.07-11.063-7.046-16.838l-.773-2.2C2.643 107.15 7.077 86.738 16 70c1-1.349 2.017-2.686 3.063-4 2.648-3.84 1.847-7.614 1.187-12l-.37-2.016c-1.705-9.303.217-18.883 5.354-26.914 2.836-3.518 5.73-6.72 10.282-7.504 6.353-.009 11.338.5 16.484 4.434 2.527 2.527 4.809 5.179 7 8l3.188-.813C81.325 24.43 97.64 22.445 117 27l.41-2.324c.675-3.062 1.773-5.133 3.59-7.676h2v-2c2.082-1.91 2.082-1.91 4.813-4.063l2.707-2.16c5.594-4.008 14.494-4.547 20.785-1.754Z" fill="#413C36"/><path d="M143.93 64.2c3.534 3.074 5.761 6.766 8.07 10.8l1.219 1.957c5.048 8.275 4.908 18.234 3.097 27.566-1.927 6.862-4.398 12.296-9.316 17.477l-1.742 1.863c-7.276 7.05-15.669 10.38-25.758 10.762-9.98-.378-18.476-3.683-25.75-10.594-3.16-3.668-5.503-7.759-7.75-12.031l-1.102-1.926c-3.682-8.502-2.931-20.15.07-28.738 4.453-10.086 12.16-17.903 22.11-22.645 12.627-4.542 26.111-2.032 36.852 5.508Z" fill="#716257"/><path d="M151.305 7.023c5.41 4.204 7.116 9.7 8.007 16.286.436 8.28-2.372 16.182-5.093 23.91-.483 2.2-.483 2.2 2.219 4.906.845.949 1.69 1.898 2.562 2.875v2l3 1c1.387 1.848 1.387 1.848 2.688 4.063l1.324 2.222L167 66c.568-.095 1.137-.19 1.723-.29 5.407-.775 9.138-.569 14.277 1.29v2l1.875.688C187 71 187 71 188.375 73.061c1.114 5.234-.49 9.945-2.625 14.75-2.235 2.794-4.66 4.413-7.75 6.188h-2l.105 3.227c.455 19.92-4.411 36.51-16.105 52.773l-2 3h-2l-1 3h-2l-1 3h-2l-1 3c-18.763 18.39-43.81 22.893-69 23-4.58-.244-9.044-.73-13.375-2.313l-2.23-.804L62 181l-2.8-.945c-5.244-1.803-9.87-3.544-14.2-7.055v-2l-2.227-.305c-11.278-2.827-20.939-16.538-26.727-25.857-3.027-5.32-5.07-11.063-7.046-16.838l-.773-2.2C2.643 107.15 7.077 86.738 16 70c1-1.349 2.017-2.686 3.063-4 2.648-3.84 1.847-7.614 1.187-12l-.37-2.016c-1.705-9.303.217-18.883 5.354-26.914C26.5 23.5 26.5 23.5 29 21l1.813-1.875C34.212 17.376 37.21 17.811 41 18l-1 3a502.64 502.64 0 0 1-6 2c-5.495 3.216-8.271 8.006-10 14-1.247 9.568-.913 19.107 3.125 27.969C28 67 28 67 28 70h-2v-5h-2l-.75 2.625C22 71 22 71 20.09 73.735c-2.24 3.499-3.559 6.956-4.777 10.89l-.643 1.984C8.754 105.048 11.756 123.756 20 141c8.726 16.34 26.324 24.71 43 31 18.878 4.9 45.536 5.217 62.875-4.563 2.664-1.687 4.897-3.21 7.125-5.437a825.47 825.47 0 0 1 5.32-2.98c1.846-1.12 3.199-2.46 4.68-4.02h2l1-3c1.496-1.332 1.496-1.332 3.438-2.813C157.51 142.352 163.763 132.629 168 123h2l2-30-6-1c-2.375-1.563-2.375-1.563-4-3l.07 3.21c.02 1.389.037 2.777.055 4.165.017.699.034 1.397.05 2.117.018 1.837-.072 3.674-.175 5.508l-2 2c-.167 3.583-.167 3.583 0 7l-1.828.242c-2.884 1.007-3.413 2.265-4.922 4.883-5.188 8.22-12.921 14.643-22.438 17.125-13.458 2.54-24.301-.216-35.812-7.25v-2l-1.813-.875c-5.007-2.575-5.007-2.575-6.374-6.75L86 115h-2v-3h3c1.36 1.977 1.36 1.977 2.75 4.625C94.968 125.649 101.9 130.241 112 133c11.256 1.479 20.528-.395 29.79-6.984 7.807-6.496 12.972-14.784 14.21-25.016.803-12.09-.622-20.237-7.695-30.055C147 69 147 69 146 66c-2-1.209-2-1.209-4-2v-2l5 2v2l1.77.66c2.956 1.776 4.125 3.85 5.917 6.778l1.825 2.933C158 79 158 79 159 82l.875-2.938C161 76 161 76 163 75l.043 2.266c.183 6.15.183 6.15 3.082 11.359C169.64 90.306 172.082 91.07 176 91c3.33-2.664 6.597-5.735 7.371-10.086.122-4.201-.043-6.384-2.309-10.039-3.747-2.294-5.657-2.116-9.878-1.465-2.256.61-4.138 1.472-6.184 2.59l-.672-1.73C156.836 53.195 140.8 41.914 124 35c-5.262-1.902-10.617-3.483-16-5v-1c5.192-.212 9.127.409 14 2l2-3 1 4 1.777.37c2.248.637 3.822 1.453 5.79 2.696l1.97 1.221c1.355.853 2.71 1.707 4.063 2.563 3.901 2.5 3.901 2.5 8.4 3.15l.313 1.938L148 46l3 1c1.598-6.607 2.215-13.038 2.25-19.813l.027-2.171c-.024-4.375-.55-7.989-2.277-12.016-3.33-2.939-6.468-3.547-10.895-3.34C132.43 10.9 126.747 16.118 122 22c-1.314 2.334-2.149 4.446-3 7l-2-1c.506-4.355 1.384-7.442 4-11h2v-2c2.082-1.91 2.082-1.91 4.813-4.063l2.707-2.16c5.594-4.008 14.494-4.547 20.785-1.754Z" fill="#100D0A"/><path d="m41 18-1 3a502.64 502.64 0 0 1-6 2c-5.495 3.216-8.271 8.006-10 14-1.247 9.568-.913 19.107 3.125 27.969C28 67 28 67 28 70h-2v-5h-2l-.75 2.625C22 71 22 71 20.09 73.735c-2.24 3.499-3.559 6.956-4.777 10.89l-.643 1.984C8.754 105.048 11.756 123.756 20 141c8.726 16.34 26.324 24.71 43 31 18.878 4.9 45.536 5.217 62.875-4.563 2.664-1.687 4.897-3.21 7.125-5.437a825.47 825.47 0 0 1 5.32-2.98c1.846-1.12 3.199-2.46 4.68-4.02h2l1-3c1.496-1.332 1.496-1.332 3.438-2.813C157.51 142.352 163.763 132.629 168 123c.824 2.357 1.152 3.578.293 5.965l-1.106 1.972c-1.178 2.14-2.216 4.143-3.054 6.442-1.409 3.259-3.3 5.795-5.446 8.621l-2.3 3.063C154 152 154 152 151.27 154.688c-2.468 2.176-2.468 2.176-3.27 5.312-2.137 1.418-2.137 1.418-5 3l-3.207 2.05C118.278 178.663 94.186 184.168 69 179c-4.721-1.158-9.367-2.53-14-4 10.249 5.341 21.554 7.235 33 8-5.123 3.415-11.093 1.79-17 1-3.128-.742-6.017-1.813-9-3l-2.781-.945C53.965 178.26 49.335 176.515 45 173v-2l-2.227-.305c-11.278-2.827-20.939-16.538-26.727-25.857-3.027-5.32-5.07-11.063-7.046-16.838l-.773-2.2C2.643 107.15 7.077 86.738 16 70c1-1.349 2.017-2.686 3.063-4 2.648-3.84 1.847-7.614 1.187-12l-.37-2.016c-1.705-9.303.217-18.883 5.354-26.914C26.5 23.5 26.5 23.5 29 21l1.813-1.875C34.212 17.376 37.21 17.811 41 18Z" fill="#26211C"/><path d="M149.375 10.625c3.977 3.599 4.521 7.021 4.926 12.293.018 1.423.022 2.846.012 4.27l-.004 2.251C154.202 35.61 153.11 41.185 151 47c-1.938-.313-1.938-.313-4-1l-1-3a103.475 103.475 0 0 0-5-2 231.615 231.615 0 0 1-6.625-4.063c-4.483-2.865-4.483-2.865-9.375-4.937l-1-3-3 3-2.5-1.063c-3.205-.858-4.553-.963-7.688-.5C107 31 107 31 104 30c-14.373-.924-28.129 1.407-42 5v2h3l-2 4c-1.5-1.375-1.5-1.375-3-3v-2h-2c-1.586-1.61-1.586-1.61-3.375-3.75-.623-.73-1.245-1.46-1.887-2.21L51 28c-2.52-2.737-4.572-4.531-8-6l1-4c6.722 2.83 10.542 6.26 15 12l3.188-.813c17.889-4.448 33.63-6.92 51.828-2.843 2.8.728 2.8.728 4.984.656l.938-2.438c2.985-5.942 8.617-11.725 14.624-14.625 5.506-1.5 9.485-1.878 14.813.688Z" fill="#201C18"/><path d="M142 89c2 2 2 2 2.063 5.625-.908 5.497-3.71 9.011-8.063 12.375-5.533 2.777-10.767 5-17 5l1 2c.148 2.142.221 4.29.25 6.438l.078 3.496C120 127 120 127 118.672 128.883c-2.642 1.765-4.59 1.567-7.672 1.117-2.78-2.78-3.942-5.527-4.098-9.48l.035-2.707.028-2.731L107 113l-2.688-.188c-4.15-1.018-5.673-2.494-8.312-5.812-1.125-2.438-1.125-2.438-1-5 1.618-2.625 2.6-4.2 5-6 3.039-.62 5.926-.325 9-.063 12.279.564 21.797-7.752 33-6.937Z" fill="#332921"/><path d="m41 18-1 3a502.64 502.64 0 0 1-6 2c-5.495 3.216-8.271 8.006-10 14-1.247 9.568-.913 19.107 3.125 27.969C28 67 28 67 28 70h-2v-5h-2l-.75 2.625C22 71 22 71 20.09 73.735c-2.24 3.499-3.559 6.956-4.777 10.89l-.643 1.984C8.754 105.048 11.756 123.756 20 141c2.738 5.127 5.822 8.935 10 13a177.118 177.118 0 0 1 2 4l3 2v2c.51.235 1.02.47 1.547.71 3.368 1.77 6.515 3.842 9.703 5.915l1.969 1.273A3027.58 3027.58 0 0 1 53 173c-2.862 1.43-4.934.6-8 0v-2l-2.227-.305c-11.278-2.827-20.939-16.538-26.727-25.857-3.027-5.32-5.07-11.063-7.046-16.838l-.773-2.2C2.643 107.15 7.077 86.738 16 70c1-1.349 2.017-2.686 3.063-4 2.648-3.84 1.847-7.614 1.187-12l-.37-2.016c-1.705-9.303.217-18.883 5.354-26.914C26.5 23.5 26.5 23.5 29 21l1.813-1.875C34.212 17.376 37.21 17.811 41 18Z" fill="#120F0B"/><path d="M45 35c2.438 1.375 2.438 1.375 4 3v2h2c1.508 1.68 1.508 1.68 3.125 3.875l1.633 2.18C57 48 57 48 57 50l-4-1 1 4h-3l-2 5h-3l-1 4h-2l-1 3h-2l-1 3-3-1c-3.36-7.841-5.147-20.087-2.176-28.27C36.774 34.39 40.182 34.577 45 35Z" fill="#CA816D"/><path d="M61 98c3.623 1.884 5.69 4.07 7 8 .52 4.555.633 7.937-1.75 11.938-4.364 4-8.04 4.546-13.836 4.46-3.657-.603-5.24-2.523-7.414-5.398l-1-1c-.853-6.514.206-10.688 4-16 4.246-2.83 8.015-2.774 13-2Z" fill="#A6745C"/><path d="M142 89c2 2 2 2 2.063 5.625-.795 5.302-4.016 9.015-8.063 12.375-2.23.723-2.23.723-4 1v-5l-3 3c-1.333-2.667-.671-4.167 0-7h-5a418.864 418.864 0 0 0-2.063 4.375l-1.16 2.46L120 108l1 2-6 1-1 9c-2.29-3.435-2.178-4.985-2-9l-8 1 .625-1.75c.627-2.29.627-2.29-.75-4.188L103 104c1.328-2.856 2.146-4.573 5-6l3.688-.188C122.46 96.758 131.484 88.236 142 89Z" fill="#14110E"/><path d="m142 62 5 2v2l1.77.66c2.956 1.776 4.125 3.85 5.917 6.778l1.825 2.933C158 79 158 79 159 82l.875-2.938C161 76 161 76 163 75l.148 2.3.227 3.013.21 2.988c.254 2.914.254 2.914 2.415 5.699l-3 1-1-1 .07 3.21c.02 1.389.037 2.777.055 4.165l.05 2.117c.018 1.837-.072 3.674-.175 5.508l-2 2c-.167 3.583-.167 3.583 0 7l-1.828.242c-2.884 1.007-3.413 2.265-4.922 4.883-5.188 8.22-12.921 14.643-22.438 17.125-13.458 2.54-24.301-.216-35.812-7.25v-2l-1.813-.875c-5.007-2.575-5.007-2.575-6.374-6.75L86 115h-2v-3h3c1.36 1.977 1.36 1.977 2.75 4.625C94.968 125.649 101.9 130.241 112 133c11.256 1.479 20.528-.395 29.79-6.984 7.807-6.496 12.972-14.784 14.21-25.016.803-12.09-.622-20.237-7.695-30.055C147 69 147 69 146 66c-2-1.209-2-1.209-4-2v-2Z" fill="#191612"/><path d="M178 68c2.7 1.8 4.542 3.084 6 6 .701 4.917.588 8.792-2.313 12.938-1.808 2.296-3.174 3.387-5.687 5.062-4.269-.08-6.735-.846-10.438-3-3.03-3.549-3.343-5.256-3.019-9.785.94-4.555 3.26-7.27 6.832-10.09 3.208-1.375 5.166-1.63 8.625-1.125Z" fill="#C07E6C"/><path d="M143 18c3.136 1.78 3.841 2.523 5 6 .095 1.956.13 3.916.125 5.875l.008 3.117c-.123 2.783-.504 5.3-1.133 8.008-2.055.773-2.055.773-5 1-2.563-1.366-4.774-2.712-7.125-4.375C130.197 34.33 130.197 34.33 125 32c1.053-5.705 5.036-9.478 9.5-12.938 3.097-1.316 5.165-1.488 8.5-1.062Z" fill="#C37C69"/><path d="M149.375 10.625c3.977 3.599 4.521 7.021 4.926 12.293.018 1.423.022 2.846.012 4.27l-.004 2.251C154.202 35.61 153.11 41.185 151 47c-1.938-.313-1.938-.313-4-1l-1-3-2-1 3-1 1-15 2 1c0-3.292-.505-5.085-2-8-4.416-2.754-8.97-3.114-14-2-3.952 2.595-7.855 5.71-10 10l-3-1c.718-6.558 5.17-9.925 10-14 5.778-3.848 12.134-4.38 18.375-1.375Z" fill="#4D473F"/><path d="M125.438 71.5 127 73c-.299 3.588-.77 4.782-3.438 7.313C121 82 121 82 119 82l1 14-2 1c-.953-4.763-1.083-9.167-1-14l-3.75.188c-3.032.016-4.072-.081-6.75-1.688L105 80c.253-3.415 1.26-4.248 3.813-6.688 4.94-3.583 11.043-5.247 16.624-1.812Z" fill="#2E221A"/><path d="m142 62 5 2v2l1.77.66c2.956 1.776 4.125 3.85 5.917 6.778l1.825 2.933C158 79 158 79 159 82l.875-2.938C161 76 161 76 163 75l.148 2.3.227 3.013c.07.986.14 1.972.21 2.988.254 2.914.254 2.914 2.415 5.699l-3 1-1-1 .105 3.21c.029 1.389.056 2.777.083 4.165l.076 2.117c.029 2.031.029 2.031-.264 5.508l-3 2 1-19h-2v14h-1l-.113-2.746c-.591-10.949-2.155-18.387-8.582-27.309C147 69 147 69 146 66c-2-1.209-2-1.209-4-2v-2Z" fill="#221E1A"/><path d="M43 18c7.598 2.035 11.192 5.9 16 12l3.688-.938c3.09-.774 6.18-1.475 9.312-2.062l-2 3 1.563-.5c3.17-.65 6.21-.562 9.437-.5-2.177 2.177-3.005 2.419-5.914 3.07l-2.305.528-2.406.527-2.43.55c-1.98.449-3.962.888-5.945 1.325v2h3l-2 4c-1.5-1.375-1.5-1.375-3-3v-2h-2c-1.586-1.61-1.586-1.61-3.375-3.75-.623-.73-1.245-1.46-1.887-2.21L51 28c-2.52-2.737-4.572-4.531-8-6v-4Z" fill="#1C1815"/><path d="M61 96c3.386 1.218 6.182 2.714 8.168 5.836 1.955 5.085 1.409 10.577-.418 15.602-2.46 3.602-4.354 5.286-8.695 6.144l-3.18.23-3.195.27C51 124 51 124 49 122l2.195-.078c6.146-.36 10.105-.84 14.805-4.922 1.723-3.446 1.372-7.224 1-11-1.624-3.635-2.661-4.774-6-7-3.392-.546-6.608-.541-10 0-3.346 2.527-4.68 4.04-6 8a140.002 140.002 0 0 0-.063 6.188l.028 3.292L45 119l-3-2c-.398-2.645-.398-2.645-.375-5.813l-.023-3.144c.614-4.691 2.496-7.23 5.96-10.356C52.184 95.42 55.943 95.201 61 96Z" fill="#1E1A15"/><path d="M53 44a90.488 90.488 0 0 1 4 4v2l-4-1 1 4h-3l-2 5h-3l-1 4h-2l-1 3h-2l-1 3-3-1-1-6 3-1 1-3h2v-2a368.99 368.99 0 0 1 5.11-3.559c2.807-2.14 4.746-4.647 6.89-7.441Z" fill="#A3674F"/><path d="m52 100 1 2 4-1v4l-3 1c-1.225 3.008-1.225 3.008-2 6h3v2c-3.877 1.193-6.916 2-11 2a267.995 267.995 0 0 1-.125-4.25l-.07-2.39c.217-2.631.715-4.178 2.195-6.36 3.125-.75 3.125-.75 6-1v-2Z" fill="#956854"/><path d="m114 110 4 2c.054 2.291.093 4.583.125 6.875l.07 3.867C118 126 118 126 116 128c-2.625-.375-2.625-.375-5-1-1.868-5.487-2.236-10.222-2-16h3l1 6 1-7Z" fill="#C14626"/><path d="M109 99c11 0 11 0 13 1l-5 9h-2l-1 11c-2.29-3.435-2.178-4.985-2-9l-5-2 1-3 3 1v-2h-4l2-6Z" fill="#26221D"/><path d="M127.188 97.688 130 98l-1 7 4-3-1 7c-5.103 1.905-9.463 3.426-15 3a430.937 430.937 0 0 1 4-9l1.375-3.063C124 98 124 98 127.188 97.688Z" fill="#191613"/><path d="m127 26 1.695 1.348c2.323 1.665 4.602 2.865 7.18 4.09C139.83 33.386 143.534 35.263 147 38v3c-2.055.773-2.055.773-5 1-2.563-1.366-4.774-2.712-7.125-4.375C130.197 34.33 130.197 34.33 125 32c.506-2.169 1-4 2-6Z" fill="#9D644E"/><path d="m123 72 1 5c-2.349 2.505-4.091 3.906-7.559 4.266A115.771 115.771 0 0 1 109 81l-1-4c5.2-4.357 8.227-5.128 15-5Z" fill="#D37F54"/><path d="M154 13h2c4.693 10.559 3.145 19.106 0 30h-4c.307-3.417.622-6.834.938-10.25l.263-2.934.264-2.832.238-2.602C154 22 154 22 154.56 19.86c.588-2.49.052-4.407-.561-6.86Z" fill="#211C19"/><path d="M89 69h2c-.745 4.742-2.592 8.31-4.844 12.5-4.101 8.869-2.431 20.094-1.156 29.5l-3-1c-3.783-11.348-1.982-23.457 2.688-34.375L86 73h2l1-4Z" fill="#1E1A17"/><path d="m123 28 2 1v3l1.777.37c2.248.637 3.822 1.453 5.79 2.696l1.97 1.221c1.355.853 2.71 1.707 4.063 2.563 3.901 2.5 3.901 2.5 8.4 3.15l-1 3c-4.227-.576-7.032-2.051-10.625-4.313C126.758 35.523 117.608 32.752 108 30v-1c5.192-.212 9.127.409 14 2l1-3Z" fill="#231E1A"/><path d="M98 24v2l3 1-13 1v2l-9 1v-1l-13 1c9.778-6.518 20.44-7.47 32-7Z" fill="#2C2722"/><path d="m174 71 1 2c-1.148 2.584-2.513 5.013-3.871 7.492C169.726 83.15 169.726 83.15 170 87l3-1 .375 2.438L174 91l2 1c-4.055-.243-7.192-.756-10.5-3.125C163 86 163 86 163.125 82.187L164 79l3-1v5l2-6h2v-5l3-1Z" fill="#A96F5B"/><path d="m142 62 5 2v2l1.766.668c2.935 1.75 4.162 3.767 5.984 6.644l1.86 2.864c1.442 2.93 1.694 4.613 1.39 7.824l-2 1-1.125-2.938c-1.707-4.029-4.061-7.476-6.57-11.046C147 69 147 69 146 66c-2-1.209-2-1.209-4-2v-2Z" fill="#171411"/><path d="M53 44a90.488 90.488 0 0 1 4 4v2l-4-1 1 4-5-1-2 5-3-1-3 1v-2a368.99 368.99 0 0 1 5.11-3.559c2.807-2.14 4.746-4.647 6.89-7.441ZM39 57l2 1-3 2 1-3Zm-3 3 2 1h-3l1-1Z" fill="#B06D56"/><path d="M46 32c2.875 1.875 2.875 1.875 5 4v3l-6-3c-3.673-.134-6.499-.167-10 1-1.033 2.792-1.033 2.792-1.688 6.063l-.761 3.347L32 49h-1c-.626-7.978-.626-7.978 1.875-12.063C35 35 35 35 37 35l1-3c2.977-1.488 4.817-.811 8 0Z" fill="#261E17"/><path d="M43 18c7.598 2.035 11.192 5.9 16 12-2 1-2 1-4.313.375-3.21-1.643-5.18-3.804-7.687-6.375-2.166-1.295-2.166-1.295-4-2v-4Z" fill="#0E0C09"/><path d="M66 106c0 5.23-.945 9.204-3 14l-4-1 1-5-1 1-2 1c2.453-10 2.453-10 9-10Z" fill="#B47561"/><path d="M22 39h1l.078 3.332c.279 8.075.812 15.048 4.082 22.566C28 67 28 67 28 70h-2v-5h-2l-1 3h-1c-.754-9.791-1.226-19.21 0-29Z" fill="#120F0C"/><path d="m114 102 2 1-1 2 4 1-4 4a103.535 103.535 0 0 0-.563 5.063l-.253 2.785L114 120c-2.29-3.435-2.178-4.985-2-9l-5-2 1-3 4 1 2-5Z" fill="#362418"/><path d="m63 75 4 2v7c-2.375.625-2.375.625-5 1-2-2-2-2-2.313-5L60 77l3-2Z" fill="#0D0B09"/><path d="m58 109 1 3 1-1 2-1-3 9 3 1c-2 2-2 2-4.383 2.195l-2.742-.07-2.758-.055L50 122l4-1 .313-2.625c.721-3.542 1.958-6.218 3.687-9.375Z" fill="#885F50"/><path d="M57 108c1.236 3.708.568 4.675-.938 8.188l-1.152 2.73L54 121c-3.716.2-4.772.152-8-2 .563-1.938.563-1.938 2-4 3.625-.75 3.625-.75 7-1l2-6Z" fill="#BC7966"/><path d="M11 87h1c.027 1.437.046 2.875.063 4.313l.035 2.425C12 96 12 96 11 99a214.192 214.192 0 0 0-.563 6.688l-.253 3.574L10 112c-2.83-2.83-2.475-5.056-2.75-9l-.297-3.813C7 96 7 96 9 94c.72-2.318 1.391-4.651 2-7Z" fill="#080603"/><path d="m122 78 1 3-4 1 1 14-2 1c-.953-4.763-1.083-9.167-1-14h-8c2.419-2.419 3.74-2.494 7.063-3.063C119.33 79.59 119.33 79.59 122 78Z" fill="#403022"/><path d="m118.688 54.938 3.574.027L125 55v2l-3.36.367-4.39.508-2.21.238c-2.993.354-5.591.663-8.306 2.02C105 61 105 61 102.75 60.625L101 60c1.27-.648 2.54-1.294 3.813-1.938l2.144-1.09c4.072-1.938 7.262-2.079 11.73-2.035Z" fill="#2A2622"/><path d="M69 106h1c.29 5.601.16 9.148-3 14-3.215 3.011-5.783 3.498-10.125 3.813l-3.195.269C51 124 51 124 49 122l2.195-.078c5.954-.35 10.24-.708 14.805-4.922 1.933-3.497 2.45-7.064 3-11Z" fill="#1B1612"/><path d="M22 31c2 2 2 2 2.075 3.848l-.247 2.215-.265 2.414L23.25 42l-.266 2.523C22.26 50.74 22.26 50.74 20 53c-1.477-7.876-.372-14.41 2-22Z" fill="#0A0705"/><path d="M54 174c5.864 1.44 11.686 2.996 17.5 4.625l2.492.695L80 181v1c-8.886-.68-16.76-2.59-25-6l-1-2Z" fill="#0A0806"/><path d="m127 26 1.688 1.375c2.365 1.662 4.602 2.646 7.312 3.625l-2 4-9-3c1-4 1-4 2-6Z" fill="#A86952"/><path d="m172 78 3 2-3 4 1.938.688C176 86 176 86 176.75 88.624L177 91h-3l-1-5c-2.053 1.842-2.053 1.842-3 4-1-1-1-1-1.25-3.75.276-3.584 1.202-5.349 3.25-8.25Z" fill="#BD7A68"/><path d="M38 164c2.316 1.285 4.628 2.578 6.938 3.875l1.998 1.105c4.95 2.793 4.95 2.793 6.064 5.02l-8-1v-2l-2.313-.188C40 170 40 170 38.188 167.438L37 165l1-1Z" fill="#0B0A08"/><path d="M102 97v4h-3v7l2 1h-4c-2-3-2-3-1.813-6 1.178-4.346 2.2-6 6.813-6Z" fill="#151310"/><path d="M142 89c2 2 2 2 2.125 4.625L144 96l-1-2c-2.025-.652-2.025-.652-4-1v-2l-9 4v-3c3.882-3.176 7.086-3.464 12-3Z" fill="#24211C"/><path d="m109 61-2.633 1.504C99.885 66.294 94.491 69.84 90 76l-1-2c12.72-15.104 12.72-15.104 20-13Z" fill="#C2B9A7"/><path d="M155 29h1l.438 2.375c.44 2.59.44 2.59 1.562 4.625a140.266 140.266 0 0 1-2 7h-4c.308-2.147.621-4.292.938-6.438l.527-3.62C154 30 154 30 155 29Z" fill="#181411"/><path d="M53 97c9.915-.781 9.915-.781 14.125 2.25 2.632 3.86 3.06 5.37 2.438 10L69 112h-1l-.262-1.828c-.696-3.963-1.217-6.559-3.863-9.672-3.74-1.951-6.677-2.215-10.875-2.5v-1Z" fill="#2D2720"/><path d="M148 54c2.063.438 2.063.438 4 1 .625 2.313.625 2.313 1 5l-2 3-4-2c-.043-2-.04-4 0-6l1-1Z" fill="#0B0908"/><path d="m70 27 2 1-2 2 1.563-.5c3.17-.65 6.21-.562 9.437-.5-3.584 3.584-9.135 3.924-14.063 4.125L65 33v-4c2.375-1.063 2.375-1.063 5-2Z" fill="#171410"/><path d="m150 7 6 5-1 2c.087 1.546.24 3.09.438 4.625l.308 2.477L156 23c-2-1-2-1-2.781-2.926l-.719-2.387c-.742-2.438-1.455-4.602-2.656-6.855L149 9l1-2Z" fill="#0A0907"/><path d="M170 131c-1.24 5.164-2.79 8.754-6 13h-1c.806-13 .806-13 7-13Z" fill="#281109"/><path d="M66 103c2.663 3.995 2.848 7.301 2 12-2.5 3.063-2.5 3.063-5 5 .466-2.394.938-4.766 1.563-7.125.55-2.041.55-2.041.437-4.875.31-1.671.64-3.339 1-5Z" fill="#8F634E"/><path d="M158 87h2c.027 2.396.047 4.792.063 7.188l.025 2.04c.018 3.726-.195 7.15-1.088 10.772h-2l1-20Z" fill="#0C0A08"/><path d="m123 28 2 2-1 3h2v2c-2.064-.453-4.126-.913-6.188-1.375l-3.48-.773A54.3 54.3 0 0 1 108 30v-1c5.192-.212 9.127.409 14 2l1-3Z" fill="#110F0D"/><path d="m106 101 1.375 1.438c1.558 1.652 1.558 1.652 3.625 2.562v2h-3l-1 2 3 1-1 2h-5l.625-1.75c.462-2.77-.196-3.896-1.625-6.25l3-3Z" fill="#161310"/><path d="m178 68 2 3-1.863-.105-2.45-.082-2.425-.106c-2.778.36-3.556 1.125-5.262 3.293l-1 2h-2l-1 5c-.75-1.625-.75-1.625-1-4 3.435-6.475 7.441-10.008 15-9Z" fill="#D0BBA6"/><path d="M46 103c1 3 1 3 0 6h4c-.188 2.375-.188 2.375-1 5-2.563 1.313-2.563 1.313-5 2a267.995 267.995 0 0 1-.125-4.25l-.07-2.39c.212-2.567.908-4.152 2.195-6.36Z" fill="#A47863"/><path d="m100 96 17 1v1l-1.793.078c-5.279.379-8.313 1.028-12.207 4.922-1.063-1.875-1.063-1.875-2-4l1-2-2-1Z" fill="#231F1B"/><path d="M21 148c4.248.472 6.268 2.889 9 6v2c-2.813.25-2.813.25-6 0-1.875-1.75-1.875-1.75-3-4v-4Z" fill="#0A0807"/><path d="m41 18-1 3c-3.262 1.305-6.58 2.21-10 3l-1-3c3.76-3.76 6.973-3.251 12-3Z" fill="#0B0907"/><path d="M98 24c1.75.115 3.5.242 5.25.375.975.07 1.95.14 2.953.21 2.693.4 4.467 1.05 6.797 2.415-4.763.953-9.167 1.083-14 1l-1-4Z" fill="#221E1B"/><path d="m174 71 1 2a107.33 107.33 0 0 1-2.938 6.625l-1.714 3.602L169 86h-1l1-9h2v-5l3-1Z" fill="#A8715E"/><path d="M53 44a90.488 90.488 0 0 1 4 4v2l-4-1 1 4-4-1c.628-2.929 1.586-5.361 3-8Z" fill="#A56851"/><path d="m148 26 2 1v15c-4 1-4 1-6 0l3-1 1-15Z" fill="#55402D"/><path d="M132 102c1.333 2.667.671 4.167 0 7l-7 2 1-6h4l2-3Z" fill="#282420"/><path d="m113 75 3 1c-.875 3.875-.875 3.875-2 5-1.666.04-3.334.043-5 0v-3c1.813-1.75 1.813-1.75 4-3Z" fill="#E16933"/><path d="M126 99c1.392 4.176-.177 6.135-2 10h-5l3-8 1 4 3-6Z" fill="#26231E"/><path d="M118 112c2 2 2 2 2.195 5.04l-.07 3.585-.055 3.602L120 127h-3l1-15Z" fill="#3F291A"/><path d="M24 66c1 2 1 2 .313 4.75C22.92 74.196 21.154 76.982 19 80c-1-2-1-2-.293-4.313L19.812 73l1.083-2.688C22 68 22 68 24 66Z" fill="#676055"/><path d="m57 103 4 2-2.438 1.25c-2.703 1.485-2.703 1.485-3.374 3.938L55 112h-3l1-6 4-1v-2Z" fill="#B87662"/><path d="m120 72 4 1-1 5-4 1-1-3h2v-4Z" fill="#E56A33"/><path d="M51 37c3.394 3.126 5.606 5.565 7 10-2.867-1.285-4.976-2.571-7-5v-2l-2-1h2v-2Z" fill="#3B2F23"/><path d="M134 38c3.994.57 6.578 1.929 10 4h3l-1 3c-4.932-.448-8.32-2.86-12-6v-1Z" fill="#191512"/><path d="M133 19c-1.528 3.438-3.502 6.19-6 9h-2c.299-3.588.77-4.782 3.438-7.313C131 19 131 19 133 19Z" fill="#19140F"/><path d="M143 6h6c1.125 3.75 1.125 3.75 0 6l-3-2c-1.99-.39-3.99-.732-6-1l3-1V6Z" fill="#1A1813"/><path d="M122 173h4v2l2 1-9 3c1-4 1-4 3-6Z" fill="#080706"/><path d="M11 131h2v4h4l1 4h-2l-1 3a875.282 875.282 0 0 1-2-4.375l-1.125-2.46C11 133 11 133 11 131Z" fill="#231C09"/><path d="m108 121 4 6c3.084.25 3.084.25 6 0l-1 3c-2.813.25-2.813.25-6 0-2.467-2.22-2.962-3.436-3.188-6.75L108 121Z" fill="#2F2219"/><path d="M22 61h3c3 5.625 3 5.625 3 9h-2v-5h-2l-1 3h-1v-7Z" fill="#1C1815"/><path d="M51 114v6l3-1v2c-3.716.2-4.772.152-8-2 2.258-5 2.258-5 5-5Z" fill="#AD715C"/><path d="m55.688 97.875 2.449.055L60 98c-3.75 2-3.75 2-6 2l-1 2c-3.063.625-3.063.625-6 1 1.593-4.778 4.056-5.26 8.688-5.125Z" fill="#C1A893"/><path d="M118 82h1l1 14-2 1c-.195-1.937-.38-3.874-.563-5.813l-.316-3.269C117 85 117 85 118 82Z" fill="#39342E"/><path d="M18 75c1.753 5.258-.189 9.929-2 15h-1c-.363-5.802.743-9.64 3-15Z" fill="#4D473F"/><path d="M156 101h1v6h2l1 6c-3-1-3-1-5-3 .023-2.164.023-2.164.375-4.625l.336-2.477L156 101Z" fill="#25211E"/><path d="m136 91 3 1v5h-3v-3h-2v2h-2c1.75-3.875 1.75-3.875 4-5Z" fill="#0A0806"/><path d="M53 49h2l2 6h-3v3l-3-1v-3h3l-1-5Z" fill="#2F2820"/><path d="M113 38h2c1.158 3.473 1.069 6.36 1 10-2-1-2-1-3.188-3.313-.848-2.807-.811-3.989.188-6.687Z" fill="#5C5147"/><path d="m113 180-1 2c-3.015 1.005-5.042 1.103-8.188 1.063l-2.73-.028L99 183c4.69-2.44 8.711-3.151 14-3Z" fill="#1C1A16"/><path d="m114 99 2.313.5c2.723.591 2.723.591 5.687.5-1.25 2.5-1.25 2.5-3 5h-4l1-5-2-1Z" fill="#2E2924"/><path d="M84 112h3c3 6.625 3 6.625 3 10h-2l-2-7h-2v-3Z" fill="#25221D"/><path d="M138 92h3v2h2v5l-4-1-1-6Z" fill="#14110E"/><path d="M89 69h2c-.503 4.401-2.088 6.712-5 10-1-3-1-3 0-6h2l1-4Z" fill="#2B2722"/><path d="M78 57c2.867 1.285 4.976 2.571 7 5v2c-1.938-.313-1.938-.313-4-1l-1-3h-2v-3Z" fill="#5D5248"/><path d="M69 106h1c.293 5.673.006 8.99-3 14h-2l.875-1.938c1.45-3.946 2.283-7.95 3.125-12.062Z" fill="#13100D"/><path d="M161 92h1c.08 1.958.14 3.916.188 5.875l.105 3.305L162 104l-3 2 2-14Z" fill="#2C2A26"/><path d="M120 176c-.688 1.938-.688 1.938-2 4-2.5.875-2.5.875-5 1l-2-2 5-1-2-2c3.75-1.125 3.75-1.125 6 0Z" fill="#13110E"/><path d="M179 135h2c-.254 1.482-.53 2.96-.813 4.438l-.457 2.496L179 144l-3 1 3-10Z" fill="#FF4105"/><path d="M171 86h2l.375 2.438L174 91l2 1-7-1 2-1-1-3 1-1Z" fill="#885C4A"/><path d="m154 76 3 1 1 7-2 1-2-9Z" fill="#100E0C"/><path d="M100 44h2c1.563 2.813 1.563 2.813 3 6l-1 3c-4-5.625-4-5.625-4-9Z" fill="#574E44"/><path d="M134 16c2.729.033 5.297.564 8 1v1l-3.375.938c-3.42.885-3.42.885-5.625 2.062l-1-3 2-2Z" fill="#2F221A"/><path d="M106 147h2c-1.625 6.75-1.625 6.75-5 9 .557-3.344 1.352-6.033 3-9Z" fill="#5A5046"/><path d="M91 146h2c-1.09 3.775-1.908 6.47-5 9 .498-3.735.875-5.812 3-9Z" fill="#5E5248"/><path d="m62 99 4 4-4 2c-1.5-1.375-1.5-1.375-3-3v-2l3-1Z" fill="#7E5F4D"/><path d="M149 22c2 2 2 2 2.266 3.875a439860343067359.2 439860343067359.2 0 0 1 0 4.25C151 32 151 32 149 34l.125-3.25c-.114-3.407-.338-4.957-2.125-7.75l2-1Z" fill="#28231D"/><path d="M157 21h2v10l-1-3h-2l1-7Z" fill="#161411"/><path d="M65 113h3c-1.25 3.653-1.671 4.78-5 7 .875-4.75.875-4.75 2-7Z" fill="#815A4A"/><path d="M174 103h2v8l-3-2c-.25-2.563-.25-2.563 0-5l1-1Z" fill="#0B0706"/><path d="m32 60 3 1c.73 2.066.73 2.066 1.188 4.563l.48 2.503L37 70c-2.912-3.288-4.497-5.599-5-10Z" fill="#2B221B"/><path d="m87 48 4 1v3h2l-1 3a141.4 141.4 0 0 1-5-5v-2Z" fill="#61554B"/><path d="m152 42-1 5-4-1v-3c2-1 2-1 5-1Z" fill="#2C2926"/><path d="M91 24h7v2l3 1-10-1v-2Z" fill="#3B3531"/><path d="M130 149h2a294.9 294.9 0 0 1-.875 3.938l-.492 2.214C130 157 130 157 128 158c.875-7.875.875-7.875 2-9Z" fill="#5B5046"/><path d="M69 133h2c-.813 2.938-.813 2.938-2 6l-3 1c1.875-5.875 1.875-5.875 3-7Z" fill="#584E45"/><path d="M85 130h2c-1.875 5.75-1.875 5.75-3 8h-2c1.875-6.875 1.875-6.875 3-8Z" fill="#5A5046"/><path d="m58 105 3 1-1 3-3 1-2 2c.75-4.75.75-4.75 3-7Z" fill="#926654"/><path d="M47 103h2v6l-4 1 2-7Z" fill="#836452"/><path d="M162 78h1l.586 5.957c.34 2.343.34 2.343 2.414 5.043l-3 1c-1-1-1-1-1.098-3.504l.036-3.058.027-3.067L162 78Z" fill="#2F271F"/><path d="m167 71 1 3-1 2h-2l-1 5c-.75-1.625-.75-1.625-1-4 1.938-3.25 1.938-3.25 4-6Z" fill="#C1A88A"/><path d="M87 35c1.938.688 1.938.688 4 2 .75 2.625.75 2.625 1 5a141.4 141.4 0 0 1-5-5v-2Z" fill="#61554A"/><path d="m64 30 1 3 2 1c-4.75 1.125-4.75 1.125-7 0v-2l4-2Z" fill="#2A2722"/><path d="M136 6h7v2l-7 1V6Z" fill="#0A0806"/><path d="m128 93 1 3-9 1c2.666-1.777 5.028-2.875 8-4Z" fill="#26221D"/><path d="M24 65h2v5l3-1 1 4c-2.438-.625-2.438-.625-5-2-.813-3.125-.813-3.125-1-6Z" fill="#2E2A26"/><path d="M64 62a56.54 56.54 0 0 1 7 4v2c-3 0-3 0-5.188-1.875C64 64 64 64 64 62Z" fill="#5E5349"/><path d="M73 39c3 1 3 1 5 4l-1 3c-2-1.813-2-1.813-4-4v-3Z" fill="#5C5147"/><path d="M162 154c-.813 1.938-.813 1.938-2 4l-3 1v-3c3-2 3-2 5-2Z" fill="#FF3810"/><path d="M180 124h5l-1 3-5-1 1-2Z" fill="#794A23"/><path d="m136 174 2 2-5 2 1-3 2-1Z" fill="#F42607"/><path d="m167 146 2 1-2 3h-2l2-4Z" fill="red"/><path d="M172 143h2l-2 4v-4Z" fill="#FF1A00"/><path d="M8 141h2l-1 3-1-3Z" fill="#FFB200"/><path d="M2 97h2v2H2v-2ZM188 122l2 1-2 1v-2Z"/></svg>